<svg xmlns="http://www.w3.org/2000/svg" x="0px" y="0px" width="349.313px" height="349.313px"
     viewBox="0 0 349.313 349.313">
    <path
            fill="#727c80"
            d="M333.302,255.092L266.944,225.6c-3.185-1.412-6.993-2.158-11.015-2.158c-8.206,0-16.438,3.052-21.47,7.941l-20.906,20.246
			c-3.112,3.017-8.632,5.042-13.751,5.042c-2.188,0-4.107-0.391-5.565-1.122c-14.102-7.068-36.285-21.19-61.847-48.312
			c-22.706-24.085-33.474-40.573-38.514-50.163c-2.821-5.38,0.127-14.678,4.55-19.101l18.613-18.598
			c7.734-7.718,11.209-21.947,7.924-32.39l-20.919-66.43C100.868,10.458,90.139,0,77.604,0C60.27,0.576,35.946,6.776,18.432,33.045
			C-8.625,73.651-6.998,151.813,42.804,207.309c46.332,51.622,115.141,108.612,115.742,109.101
			c1.485,1.345,36.971,32.904,88.883,32.904c5.002,0,10.115-0.31,15.213-0.908c56.533-6.835,77.257-43.071,84.579-64.054
			C351.4,272.438,343.398,259.602,333.302,255.092z M336.029,280.431c-6.413,18.388-24.663,50.146-74.813,56.203
			c-4.565,0.554-9.206,0.828-13.792,0.828c-46.722,0-79.691-28.731-81.158-30.026c-2.829-2.355-69.932-58.233-114.653-108.049
			C7.047,149.737,3.564,76.685,28.276,39.608c14.701-22.057,35.279-27.279,49.967-27.777c5.987,0.025,12.695,6.614,14.488,12.279
			l20.918,66.43c1.968,6.256-0.371,15.808-5.007,20.447l-18.605,18.595c-7.599,7.592-12.096,22.666-6.652,32.992
			c5.396,10.27,16.788,27.759,40.37,52.788c26.749,28.365,50.196,43.27,65.161,50.779c3.062,1.539,6.835,2.356,10.902,2.356
			c8.231,0,16.65-3.199,21.967-8.368l20.906-20.262c4.185-4.047,14.076-5.824,19.424-3.453l66.354,29.488
			C333.531,268.183,337.933,275.008,336.029,280.431z"/>
</svg>
